<?xml version="1.0" encoding="UTF-8" standalone="no"?>
<!-- Created with Inkscape (http://www.inkscape.org/) -->

<svg
   width="30.025833mm"
   height="9.6294928mm"
   viewBox="0 0 30.025833 9.6294928"
   version="1.1"
   id="svg5841"
   inkscape:version="1.1.2 (0a00cf5339, 2022-02-04)"
   sodipodi:docname="french_oceanographic_fleet_logo.svg"
   xmlns:inkscape="http://www.inkscape.org/namespaces/inkscape"
   xmlns:sodipodi="http://sodipodi.sourceforge.net/DTD/sodipodi-0.dtd"
   xmlns="http://www.w3.org/2000/svg"
   xmlns:svg="http://www.w3.org/2000/svg">
  <sodipodi:namedview
     id="namedview5843"
     pagecolor="#ffffff"
     bordercolor="#666666"
     borderopacity="1.0"
     inkscape:pageshadow="2"
     inkscape:pageopacity="0.0"
     inkscape:pagecheckerboard="0"
     inkscape:document-units="mm"
     showgrid="false"
     inkscape:zoom="1.0633188"
     inkscape:cx="88.872691"
     inkscape:cy="-127.90144"
     inkscape:window-width="1610"
     inkscape:window-height="1013"
     inkscape:window-x="3910"
     inkscape:window-y="0"
     inkscape:window-maximized="1"
     inkscape:current-layer="layer1" />
  <defs
     id="defs5838">
    <clipPath
       clipPathUnits="userSpaceOnUse"
       id="clipPath3950">
      <path
         d="m 121.973,536.877 h 106.051 v 34.765 H 121.973 Z"
         id="path3948" />
    </clipPath>
  </defs>
  <g
     inkscape:label="Layer 1"
     inkscape:groupmode="layer"
     id="layer1"
     transform="translate(-78.240582,-114.4875)">
    <g
       id="g3944"
       transform="matrix(0.35277777,0,0,-0.35277777,31.516789,314.82308)">
      <g
         id="g3946"
         clip-path="url(#clipPath3950)">
        <g
           id="g3952"
           transform="translate(152.6665,553.4252)">
          <path
             d="m 0,0 c -3.059,0 -4.803,-1.482 -6.42,-2.996 2.297,-1.655 3.815,-3.387 3.652,-3.425 -1.002,-0.234 -2.358,-1.122 -3.737,-2.352 -0.389,-0.347 -0.768,-0.711 -1.155,-1.073 2.124,-1.53 4.915,-2.995 7.66,-2.995 3.392,0 6.142,2.875 6.142,6.421 C 6.142,-2.875 3.392,0 0,0"
             style="fill:#0069b4;fill-opacity:1;fill-rule:nonzero;stroke:none"
             id="path3954" />
        </g>
        <g
           id="g3956"
           transform="translate(139.8074,547.2802)">
          <path
             d="M 0,0 C 0.743,0.299 2.264,0.7 3.995,2.25 4.448,2.656 5.002,3.168 5.637,3.702 3.638,5.014 1.191,6.145 -1.22,6.145 c -3.392,0 -6.142,-2.875 -6.142,-6.421 0,-3.546 2.75,-6.42 6.142,-6.42 2.646,0 4.308,1.108 5.755,2.388 C 1.694,-2.318 -0.187,-0.076 0,0"
             style="fill:#183254;fill-opacity:1;fill-rule:nonzero;stroke:none"
             id="path3958" />
        </g>
        <g
           id="g3960"
           transform="translate(141.3549,547.0048)">
          <path
             d="m 0,0 c -0.163,-0.038 1.355,-1.77 3.652,-3.425 0.386,0.362 0.766,0.726 1.154,1.072 C 6.186,-1.123 7.542,-0.235 8.544,0 8.707,0.038 7.189,1.77 4.892,3.425 4.505,3.063 4.126,2.699 3.738,2.353 2.358,1.122 1.002,0.234 0,0"
             style="fill:#183254;fill-opacity:1;fill-rule:nonzero;stroke:none"
             id="path3962" />
        </g>
        <g
           id="g3964"
           transform="translate(145.4868,561.8728)">
          <path
             d="M 0,0 C 0.518,0.252 1.065,0.508 1.629,0.759 1.459,0.763 1.288,0.765 1.115,0.765 -0.4,0.765 -2.352,0.531 -3.203,0.329 l 0.185,-0.702 C -2.138,-0.184 -1.112,-0.053 0,0"
             style="fill:#183254;fill-opacity:1;fill-rule:nonzero;stroke:none"
             id="path3966" />
        </g>
        <g
           id="g3968"
           transform="translate(148.6836,563.2992)">
          <path
             d="M 0,0 C 0.469,0.189 0.943,0.369 1.414,0.537 0.381,0.706 -0.811,0.803 -2.082,0.803 -3.665,0.803 -5.529,0.6 -6.311,0.399 -6.376,0.218 -6.465,-0.348 -6.465,-0.348 -5.255,-0.074 -3.734,0.09 -2.082,0.09 -1.357,0.09 -0.659,0.058 0,0"
             style="fill:#183254;fill-opacity:1;fill-rule:nonzero;stroke:none"
             id="path3970" />
        </g>
        <g
           id="g3972"
           transform="translate(145.9649,564.6724)">
          <path
             d="m 0,0 -0.161,3.016 c -0.009,0.09 -0.09,0.192 -0.2,0.192 -0.11,0 -0.191,-0.099 -0.199,-0.192 L -0.721,0 Z"
             style="fill:#183254;fill-opacity:1;fill-rule:nonzero;stroke:none"
             id="path3974" />
        </g>
        <g
           id="g3976"
           transform="translate(155.1112,563.6147)">
          <path
             d="m 0,0 c 0.017,0.255 -0.057,0.406 -0.352,0.433 -4.398,0.415 -13.35,-5.294 -13.35,-5.294 l -0.15,-1.241 -3.562,-1.789 V -8.81 c 0,0 0.956,-0.365 3.662,-0.161 1.891,0.144 6.401,1.02 12.082,0.184 C -1.327,-6.494 -0.039,-0.584 0,0"
             style="fill:#183254;fill-opacity:1;fill-rule:nonzero;stroke:none"
             id="path3978" />
        </g>
        <g
           id="g3980"
           transform="translate(163.5767,563.3223)">
          <path
             d="m 0,0 h -1.318 v -0.877 h 1.236 v -0.659 h -1.236 v -1.73 H -2.083 V 0.659 H 0 Z"
             style="fill:#183254;fill-opacity:1;fill-rule:nonzero;stroke:none"
             id="path3982" />
        </g>
        <g
           id="g3984"
           transform="translate(165.0947,563.9814)">
          <path
             d="M 0,0 V -3.266 H 1.212 V -3.925 H -0.765 V 0 Z"
             style="fill:#183254;fill-opacity:1;fill-rule:nonzero;stroke:none"
             id="path3986" />
        </g>
        <g
           id="g3988"
           transform="translate(170.02,562.0159)">
          <path
             d="m 0,0 c 0,0.794 -0.541,1.359 -1.306,1.359 -0.765,0 -1.307,-0.565 -1.307,-1.359 0,-0.794 0.542,-1.353 1.307,-1.353 C -0.541,-1.353 0,-0.794 0,0 m 0.788,0 c 0,-1.195 -0.859,-2.048 -2.094,-2.048 -1.236,0 -2.095,0.853 -2.095,2.048 0,1.195 0.859,2.054 2.095,2.054 1.235,0 2.094,-0.859 2.094,-2.054"
             style="fill:#183254;fill-opacity:1;fill-rule:nonzero;stroke:none"
             id="path3990" />
        </g>
        <g
           id="g3992"
           transform="translate(172.6736,563.3223)">
          <path
             d="M 0,0 V -3.266 H -0.765 V 0 H -1.648 V 0.659 H 0.883 V 0 Z"
             style="fill:#183254;fill-opacity:1;fill-rule:nonzero;stroke:none"
             id="path3994" />
        </g>
        <g
           id="g3996"
           transform="translate(175.6037,563.3223)">
          <path
             d="M 0,0 V -3.266 H -0.765 V 0 H -1.648 V 0.659 H 0.883 V 0 Z"
             style="fill:#183254;fill-opacity:1;fill-rule:nonzero;stroke:none"
             id="path3998" />
        </g>
        <g
           id="g4000"
           transform="translate(179.2403,563.3223)">
          <path
             d="m 0,0 h -1.412 v -0.877 h 1.353 V -1.536 H -1.412 V -2.607 H 0 V -3.266 H -2.177 V 0.659 H 0 Z"
             style="fill:#183254;fill-opacity:1;fill-rule:nonzero;stroke:none"
             id="path4002" />
        </g>
        <g
           id="g4004"
           transform="translate(164.7066,555.6011)">
          <path
             d="m 0,0 c 0,0.794 -0.541,1.359 -1.306,1.359 -0.765,0 -1.307,-0.565 -1.307,-1.359 0,-0.794 0.542,-1.353 1.307,-1.353 C -0.541,-1.353 0,-0.794 0,0 m 0.789,0 c 0,-1.195 -0.86,-2.048 -2.095,-2.048 -1.236,0 -2.095,0.853 -2.095,2.048 0,1.195 0.859,2.054 2.095,2.054 1.235,0 2.095,-0.859 2.095,-2.054"
             style="fill:#183254;fill-opacity:1;fill-rule:nonzero;stroke:none"
             id="path4006" />
        </g>
        <g
           id="g4008"
           transform="translate(169.049,553.7828)">
          <path
             d="m 0,0 c -0.235,-0.124 -0.547,-0.229 -0.971,-0.229 -0.688,0 -1.106,0.235 -1.436,0.547 -0.453,0.435 -0.63,0.924 -0.63,1.5 0,0.712 0.295,1.224 0.63,1.536 0.394,0.371 0.883,0.518 1.442,0.518 0.276,0 0.606,-0.047 0.965,-0.241 L 0,2.736 c -0.359,0.412 -0.806,0.442 -0.947,0.442 -0.789,0 -1.301,-0.648 -1.301,-1.371 0,-0.871 0.671,-1.342 1.33,-1.342 0.365,0 0.689,0.159 0.918,0.429 z"
             style="fill:#183254;fill-opacity:1;fill-rule:nonzero;stroke:none"
             id="path4010" />
        </g>
        <g
           id="g4012"
           transform="translate(170.4257,558.2198)">
          <path
             d="M 0,0 0.824,0.836 1.353,0.424 0.33,-0.294 Z M 1.506,-1.312 H 0.094 V -2.189 H 1.448 V -2.848 H 0.094 v -1.071 h 1.412 v -0.659 h -2.177 v 3.925 h 2.177 z"
             style="fill:#183254;fill-opacity:1;fill-rule:nonzero;stroke:none"
             id="path4014" />
        </g>
        <g
           id="g4016"
           transform="translate(174.7742,555.0892)">
          <path
             d="M 0,0 -0.559,1.412 -1.118,0 Z m 0.224,-0.624 h -1.583 l -0.348,-0.824 h -0.829 l 1.689,3.925 h 0.6 L 1.395,-1.448 H 0.571 Z"
             style="fill:#183254;fill-opacity:1;fill-rule:nonzero;stroke:none"
             id="path4018" />
        </g>
        <g
           id="g4020"
           transform="translate(176.6275,553.6417)">
          <path
             d="M 0,0 V 3.925 H 0.53 L 2.919,1.306 V 3.925 H 3.684 V 0 H 3.154 L 0.765,2.624 V 0 Z"
             style="fill:#183254;fill-opacity:1;fill-rule:nonzero;stroke:none"
             id="path4022" />
        </g>
        <g
           id="g4024"
           transform="translate(184.4186,555.6011)">
          <path
             d="m 0,0 c 0,0.794 -0.541,1.359 -1.306,1.359 -0.766,0 -1.307,-0.565 -1.307,-1.359 0,-0.794 0.541,-1.353 1.307,-1.353 C -0.541,-1.353 0,-0.794 0,0 m 0.788,0 c 0,-1.195 -0.859,-2.048 -2.094,-2.048 -1.236,0 -2.095,0.853 -2.095,2.048 0,1.195 0.859,2.054 2.095,2.054 1.235,0 2.094,-0.859 2.094,-2.054"
             style="fill:#183254;fill-opacity:1;fill-rule:nonzero;stroke:none"
             id="path4026" />
        </g>
        <g
           id="g4028"
           transform="translate(187.9018,555.7424)">
          <path
             d="m 0,0 h 1.801 v -0.047 c 0,-0.265 -0.036,-1.089 -0.577,-1.624 -0.406,-0.406 -0.906,-0.518 -1.395,-0.518 -0.488,0 -0.994,0.1 -1.424,0.53 -0.135,0.135 -0.582,0.629 -0.582,1.512 0,0.759 0.341,1.224 0.576,1.459 0.295,0.3 0.789,0.6 1.548,0.6 0.294,0 0.606,-0.047 0.906,-0.205 0.253,-0.13 0.53,-0.365 0.736,-0.718 L 0.924,0.63 C 0.788,0.894 0.588,1.03 0.465,1.095 0.3,1.177 0.094,1.218 -0.088,1.218 -0.4,1.218 -0.753,1.106 -0.995,0.871 -1.218,0.653 -1.389,0.277 -1.389,-0.165 -1.389,-0.689 -1.165,-1 -1,-1.159 c 0.176,-0.171 0.453,-0.336 0.871,-0.336 0.258,0 0.553,0.071 0.77,0.236 0.153,0.117 0.306,0.317 0.371,0.6 H 0 Z"
             style="fill:#183254;fill-opacity:1;fill-rule:nonzero;stroke:none"
             id="path4030" />
        </g>
        <g
           id="g4032"
           transform="translate(191.1733,555.7601)">
          <path
             d="m 0,0 h 0.218 c 0.147,0 0.753,0.018 0.753,0.594 0,0.583 -0.6,0.589 -0.742,0.589 L 0,1.183 Z m 0.371,1.807 c 0.541,0 0.818,-0.142 1,-0.295 C 1.671,1.259 1.759,0.924 1.759,0.63 1.759,0.247 1.606,-0.088 1.301,-0.294 1.2,-0.365 1.059,-0.43 0.871,-0.465 L 2.095,-2.118 H 1.142 L 0.094,-0.541 H 0 v -1.577 h -0.765 v 3.925 z"
             style="fill:#183254;fill-opacity:1;fill-rule:nonzero;stroke:none"
             id="path4034" />
        </g>
        <g
           id="g4036"
           transform="translate(195.8866,555.0892)">
          <path
             d="M 0,0 -0.559,1.412 -1.118,0 Z m 0.224,-0.624 h -1.583 l -0.348,-0.824 h -0.829 l 1.689,3.925 h 0.6 L 1.395,-1.448 H 0.571 Z"
             style="fill:#183254;fill-opacity:1;fill-rule:nonzero;stroke:none"
             id="path4038" />
        </g>
        <g
           id="g4040"
           transform="translate(198.5051,555.7542)">
          <path
             d="M 0,0 H 0.312 C 0.459,0 0.647,0 0.812,0.124 0.953,0.235 1.024,0.412 1.024,0.583 1.024,0.8 0.918,0.947 0.806,1.03 0.647,1.142 0.447,1.153 0.265,1.153 H 0 Z m 0.377,1.812 c 0.441,0 0.747,-0.047 1.035,-0.3 C 1.73,1.23 1.812,0.847 1.812,0.565 1.812,0.412 1.789,-0.012 1.489,-0.312 1.271,-0.53 0.947,-0.659 0.494,-0.659 H 0 v -1.453 h -0.765 v 3.924 z"
             style="fill:#183254;fill-opacity:1;fill-rule:nonzero;stroke:none"
             id="path4042" />
        </g>
        <g
           id="g4044"
           transform="translate(201.6473,556.0483)">
          <path
             d="M 0,0 H 1.659 V 1.518 H 2.424 V -2.407 H 1.659 v 1.748 H 0 V -2.407 H -0.765 V 1.518 H 0 Z"
             style="fill:#183254;fill-opacity:1;fill-rule:nonzero;stroke:none"
             id="path4046" />
        </g>
        <path
           d="m 205.731,553.642 h -0.765 v 3.925 h 0.765 z"
           style="fill:#183254;fill-opacity:1;fill-rule:nonzero;stroke:none"
           id="path4048" />
        <g
           id="g4050"
           transform="translate(209.5793,554.7537)">
          <path
             d="m 0,0 c 0.124,0.165 0.259,0.412 0.259,0.847 0,0.795 -0.542,1.36 -1.307,1.36 -0.764,0 -1.306,-0.565 -1.306,-1.36 0,-0.788 0.535,-1.353 1.324,-1.353 0.265,0 0.441,0.059 0.583,0.129 L -1.248,0.4 -0.453,0.465 Z M 0.071,-0.918 C -0.277,-1.124 -0.612,-1.2 -1.048,-1.2 c -1.235,0 -2.094,0.847 -2.094,2.047 0,1.195 0.859,2.054 2.094,2.054 1.236,0 2.095,-0.859 2.095,-2.054 0,-0.735 -0.306,-1.159 -0.517,-1.394 L 1.165,-1.189 0.394,-1.265 Z"
             style="fill:#183254;fill-opacity:1;fill-rule:nonzero;stroke:none"
             id="path4052" />
        </g>
        <g
           id="g4054"
           transform="translate(212.0975,557.5666)">
          <path
             d="m 0,0 v -2.466 c 0,-0.3 0.1,-0.482 0.188,-0.582 0.112,-0.136 0.318,-0.271 0.624,-0.271 0.306,0 0.512,0.135 0.624,0.271 0.088,0.1 0.188,0.282 0.188,0.582 V 0 h 0.765 v -2.401 c 0,-0.371 -0.059,-0.747 -0.294,-1.047 -0.283,-0.371 -0.777,-0.565 -1.283,-0.565 -0.506,0 -1,0.194 -1.283,0.565 -0.235,0.3 -0.294,0.676 -0.294,1.047 V 0 Z"
             style="fill:#183254;fill-opacity:1;fill-rule:nonzero;stroke:none"
             id="path4056" />
        </g>
        <g
           id="g4058"
           transform="translate(217.558,556.9075)">
          <path
             d="m 0,0 h -1.412 v -0.877 h 1.353 V -1.536 H -1.412 V -2.607 H 0 V -3.266 H -2.177 V 0.659 H 0 Z"
             style="fill:#183254;fill-opacity:1;fill-rule:nonzero;stroke:none"
             id="path4060" />
        </g>
        <g
           id="g4062"
           transform="translate(163.3413,550.7401)">
          <path
             d="m 0,0 h -1.353 v -1.159 h 1.306 V -1.571 H -1.353 V -3.513 H -1.789 V 0.412 H 0 Z"
             style="fill:#183254;fill-opacity:1;fill-rule:nonzero;stroke:none"
             id="path4064" />
        </g>
        <g
           id="g4066"
           transform="translate(164.6357,549.3336)">
          <path
             d="M 0,0 H 0.277 C 0.818,0 1.142,0.259 1.142,0.718 1.142,0.936 1.077,1.153 0.83,1.295 0.653,1.395 0.453,1.406 0.265,1.406 H 0 Z M 0.194,1.818 C 0.459,1.818 0.853,1.801 1.148,1.601 1.377,1.448 1.577,1.147 1.577,0.73 1.577,0.129 1.183,-0.312 0.589,-0.353 L 1.836,-2.107 H 1.306 L 0.112,-0.388 H 0 v -1.719 h -0.435 v 3.925 z"
             style="fill:#183254;fill-opacity:1;fill-rule:nonzero;stroke:none"
             id="path4068" />
        </g>
        <g
           id="g4070"
           transform="translate(169.2432,548.7451)">
          <path
             d="M 0,0 -0.659,1.571 -1.33,0 Z m 0.171,-0.412 h -1.672 l -0.47,-1.106 h -0.483 l 1.807,4.113 1.759,-4.113 H 0.63 Z"
             style="fill:#183254;fill-opacity:1;fill-rule:nonzero;stroke:none"
             id="path4072" />
        </g>
        <g
           id="g4074"
           transform="translate(171.0023,547.2269)">
          <path
             d="M 0,0 V 4.09 L 3.06,0.883 V 3.925 H 3.496 V -0.177 L 0.436,3.03 V 0 Z"
             style="fill:#183254;fill-opacity:1;fill-rule:nonzero;stroke:none"
             id="path4076" />
        </g>
        <g
           id="g4078"
           transform="translate(177.6515,546.7444)">
          <path
             d="M 0,0 -0.612,-0.753 -0.906,-0.6 -0.412,0.177 Z M 0.953,3.543 C 0.83,3.666 0.641,3.813 0.441,3.907 0.235,4.001 -0.006,4.06 -0.235,4.06 c -0.907,0 -1.577,-0.729 -1.577,-1.636 0,-1.065 0.865,-1.6 1.583,-1.6 0.264,0 0.523,0.076 0.729,0.182 0.224,0.112 0.383,0.259 0.453,0.33 V 0.794 C 0.518,0.482 0.065,0.412 -0.229,0.412 c -1.166,0 -2.031,0.882 -2.031,2.018 0,1.171 0.877,2.042 2.054,2.042 0.236,0 0.689,-0.029 1.159,-0.388 z"
             style="fill:#183254;fill-opacity:1;fill-rule:nonzero;stroke:none"
             id="path4080" />
        </g>
        <g
           id="g4082"
           transform="translate(181.494,548.7451)">
          <path
             d="M 0,0 -0.659,1.571 -1.33,0 Z m 0.171,-0.412 h -1.672 l -0.47,-1.106 h -0.483 l 1.807,4.113 1.759,-4.113 H 0.63 Z"
             style="fill:#183254;fill-opacity:1;fill-rule:nonzero;stroke:none"
             id="path4084" />
        </g>
        <path
           d="m 183.689,547.227 h -0.436 v 3.925 h 0.436 z"
           style="fill:#183254;fill-opacity:1;fill-rule:nonzero;stroke:none"
           id="path4086" />
        <g
           id="g4088"
           transform="translate(186.5485,550.3751)">
          <path
             d="m 0,0 c -0.053,0.106 -0.141,0.224 -0.229,0.294 -0.077,0.059 -0.218,0.136 -0.442,0.136 -0.388,0 -0.659,-0.242 -0.659,-0.607 0,-0.153 0.041,-0.241 0.147,-0.341 0.118,-0.117 0.265,-0.182 0.412,-0.247 l 0.377,-0.165 c 0.229,-0.1 0.441,-0.206 0.606,-0.371 0.2,-0.2 0.282,-0.429 0.282,-0.712 0,-0.723 -0.535,-1.206 -1.241,-1.206 -0.259,0 -0.583,0.053 -0.854,0.318 -0.194,0.188 -0.311,0.459 -0.365,0.694 l 0.424,0.118 c 0.03,-0.206 0.124,-0.382 0.236,-0.5 0.17,-0.171 0.364,-0.218 0.564,-0.218 0.536,0 0.789,0.383 0.789,0.777 0,0.176 -0.053,0.329 -0.194,0.459 -0.112,0.106 -0.265,0.176 -0.471,0.27 l -0.353,0.165 c -0.153,0.071 -0.347,0.153 -0.524,0.324 -0.171,0.165 -0.271,0.347 -0.271,0.641 0,0.606 0.465,1.013 1.101,1.013 0.241,0 0.436,-0.048 0.63,-0.177 C 0.124,0.559 0.259,0.4 0.347,0.229 Z"
             style="fill:#183254;fill-opacity:1;fill-rule:nonzero;stroke:none"
             id="path4090" />
        </g>
        <g
           id="g4092"
           transform="translate(189.9731,550.7401)">
          <path
             d="m 0,0 h -1.601 v -1.165 h 1.554 V -1.577 H -1.601 V -3.101 H 0 V -3.513 H -2.036 V 0.412 H 0 Z"
             style="fill:#183254;fill-opacity:1;fill-rule:nonzero;stroke:none"
             id="path4094" />
        </g>
        <g
           id="g4096"
           transform="translate(161.9878,542.9305)">
          <path
             d="m 0,0 h 0.359 c 0.518,0 0.83,0.259 0.83,0.712 0,0.624 -0.583,0.683 -0.865,0.683 H 0 Z M 0.277,1.807 C 0.671,1.807 1,1.759 1.265,1.53 1.554,1.283 1.624,0.936 1.624,0.689 1.624,0.135 1.277,-0.412 0.382,-0.412 H 0 v -1.706 h -0.435 v 3.925 z"
             style="fill:#183254;fill-opacity:1;fill-rule:nonzero;stroke:none"
             id="path4098" />
        </g>
        <g
           id="g4100"
           transform="translate(166.0187,542.3302)">
          <path
             d="M 0,0 -0.659,1.571 -1.33,0 Z m 0.171,-0.412 h -1.672 l -0.47,-1.106 h -0.483 l 1.807,4.113 1.759,-4.113 H 0.63 Z"
             style="fill:#183254;fill-opacity:1;fill-rule:nonzero;stroke:none"
             id="path4102" />
        </g>
        <g
           id="g4104"
           transform="translate(168.2134,542.9188)">
          <path
             d="M 0,0 H 0.277 C 0.818,0 1.142,0.259 1.142,0.718 1.142,0.936 1.077,1.153 0.83,1.294 0.653,1.395 0.453,1.406 0.265,1.406 H 0 Z M 0.194,1.818 C 0.459,1.818 0.853,1.801 1.148,1.601 1.377,1.448 1.577,1.147 1.577,0.73 1.577,0.129 1.183,-0.312 0.589,-0.353 L 1.836,-2.107 H 1.306 L 0.112,-0.388 H 0 v -1.719 h -0.436 v 3.925 z"
             style="fill:#183254;fill-opacity:1;fill-rule:nonzero;stroke:none"
             id="path4106" />
        </g>
        <g
           id="g4108"
           transform="translate(172.7265,544.7371)">
          <path
             d="M 0,0 V -3.513 H 1.083 V -3.925 H -0.436 V 0 Z"
             style="fill:#183254;fill-opacity:1;fill-rule:nonzero;stroke:none"
             id="path4110" />
        </g>
        <g
           id="g4112"
           transform="translate(174.5565,544.8784)">
          <path
             d="M 0,0 0.394,-0.141 -0.2,-1.471 -0.477,-1.359 Z"
             style="fill:#183254;fill-opacity:1;fill-rule:nonzero;stroke:none"
             id="path4114" />
        </g>
        <path
           d="m 176.328,540.812 h -0.436 v 3.925 h 0.436 z"
           style="fill:#183254;fill-opacity:1;fill-rule:nonzero;stroke:none"
           id="path4116" />
        <g
           id="g4118"
           transform="translate(179.2226,544.3253)">
          <path
             d="m 0,0 h -1.353 v -1.159 h 1.306 V -1.571 H -1.353 V -3.513 H -1.789 V 0.412 H 0 Z"
             style="fill:#183254;fill-opacity:1;fill-rule:nonzero;stroke:none"
             id="path4120" />
        </g>
        <g
           id="g4122"
           transform="translate(180.5169,542.9188)">
          <path
             d="M 0,0 H 0.277 C 0.818,0 1.142,0.259 1.142,0.718 1.142,0.936 1.077,1.153 0.83,1.294 0.653,1.395 0.453,1.406 0.265,1.406 H 0 Z M 0.194,1.818 C 0.459,1.818 0.853,1.801 1.148,1.601 1.377,1.448 1.577,1.147 1.577,0.73 1.577,0.129 1.183,-0.312 0.589,-0.353 L 1.836,-2.107 H 1.306 L 0.112,-0.388 H 0 v -1.719 h -0.435 v 3.925 z"
             style="fill:#183254;fill-opacity:1;fill-rule:nonzero;stroke:none"
             id="path4124" />
        </g>
        <g
           id="g4126"
           transform="translate(185.1656,544.3253)">
          <path
             d="m 0,0 h -1.601 v -1.165 h 1.554 V -1.577 H -1.601 V -3.101 H 0 V -3.513 H -2.036 V 0.412 H 0 Z"
             style="fill:#183254;fill-opacity:1;fill-rule:nonzero;stroke:none"
             id="path4128" />
        </g>
        <g
           id="g4130"
           transform="translate(185.9245,540.8121)">
          <path
             d="M 0,0 0.653,4.143 2.16,0.83 3.696,4.149 4.308,0 H 3.86 L 3.49,2.731 2.154,-0.165 0.836,2.731 0.447,0 Z"
             style="fill:#183254;fill-opacity:1;fill-rule:nonzero;stroke:none"
             id="path4132" />
        </g>
        <g
           id="g4134"
           transform="translate(193.2682,544.3253)">
          <path
             d="m 0,0 h -1.601 v -1.165 h 1.554 V -1.577 H -1.601 V -3.101 H 0 V -3.513 H -2.036 V 0.412 H 0 Z"
             style="fill:#183254;fill-opacity:1;fill-rule:nonzero;stroke:none"
             id="path4136" />
        </g>
        <g
           id="g4138"
           transform="translate(194.5979,542.9188)">
          <path
             d="M 0,0 H 0.277 C 0.818,0 1.142,0.259 1.142,0.718 1.142,0.936 1.077,1.153 0.83,1.294 0.653,1.395 0.453,1.406 0.265,1.406 H 0 Z m 0.194,1.818 c 0.265,0 0.659,-0.017 0.953,-0.217 0.23,-0.153 0.43,-0.454 0.43,-0.871 0,-0.601 -0.394,-1.042 -0.989,-1.083 L 1.836,-2.107 H 1.306 L 0.112,-0.388 H 0 v -1.719 h -0.436 v 3.925 z"
             style="fill:#183254;fill-opacity:1;fill-rule:nonzero;stroke:none"
             id="path4140" />
        </g>
      </g>
    </g>
  </g>
</svg>
