<?xml version="1.0" encoding="UTF-8" standalone="no"?>
<!-- Created with Inkscape (http://www.inkscape.org/) -->

<svg
   width="9.3003206mm"
   height="9.6294909mm"
   viewBox="0 0 9.3003206 9.6294909"
   version="1.1"
   id="svg6551"
   inkscape:version="1.1.2 (0a00cf5339, 2022-02-04)"
   sodipodi:docname="french_oceanographic_fleet_icon.svg"
   xmlns:inkscape="http://www.inkscape.org/namespaces/inkscape"
   xmlns:sodipodi="http://sodipodi.sourceforge.net/DTD/sodipodi-0.dtd"
   xmlns="http://www.w3.org/2000/svg"
   xmlns:svg="http://www.w3.org/2000/svg">
  <sodipodi:namedview
     id="namedview6553"
     pagecolor="#ffffff"
     bordercolor="#666666"
     borderopacity="1.0"
     inkscape:pageshadow="2"
     inkscape:pageopacity="0.0"
     inkscape:pagecheckerboard="0"
     inkscape:document-units="mm"
     showgrid="false"
     inkscape:zoom="0.75187991"
     inkscape:cx="-87.114976"
     inkscape:cy="58.519984"
     inkscape:window-width="1610"
     inkscape:window-height="1013"
     inkscape:window-x="3910"
     inkscape:window-y="0"
     inkscape:window-maximized="1"
     inkscape:current-layer="layer1" />
  <defs
     id="defs6548" />
  <g
     inkscape:label="Layer 1"
     inkscape:groupmode="layer"
     id="layer1"
     transform="translate(-128.01453,-104.97672)">
    <g
       id="g3952"
       transform="matrix(0.35277777,0,0,-0.35277777,135.14809,110.07619)">
      <path
         d="m 0,0 c -3.059,0 -4.803,-1.482 -6.42,-2.996 2.297,-1.655 3.815,-3.387 3.652,-3.425 -1.002,-0.234 -2.358,-1.122 -3.737,-2.352 -0.389,-0.347 -0.768,-0.711 -1.155,-1.073 2.124,-1.53 4.915,-2.995 7.66,-2.995 3.392,0 6.142,2.875 6.142,6.421 C 6.142,-2.875 3.392,0 0,0"
         style="fill:#0069b4;fill-opacity:1;fill-rule:nonzero;stroke:none"
         id="path3954" />
    </g>
    <g
       id="g3956"
       transform="matrix(0.35277777,0,0,-0.35277777,130.61168,112.24401)">
      <path
         d="M 0,0 C 0.743,0.299 2.264,0.7 3.995,2.25 4.448,2.656 5.002,3.168 5.637,3.702 3.638,5.014 1.191,6.145 -1.22,6.145 c -3.392,0 -6.142,-2.875 -6.142,-6.421 0,-3.546 2.75,-6.42 6.142,-6.42 2.646,0 4.308,1.108 5.755,2.388 C 1.694,-2.318 -0.187,-0.076 0,0"
         style="fill:#183254;fill-opacity:1;fill-rule:nonzero;stroke:none"
         id="path3958" />
    </g>
    <g
       id="g3960"
       transform="matrix(0.35277777,0,0,-0.35277777,131.15761,112.34117)">
      <path
         d="m 0,0 c -0.163,-0.038 1.355,-1.77 3.652,-3.425 0.386,0.362 0.766,0.726 1.154,1.072 C 6.186,-1.123 7.542,-0.235 8.544,0 8.707,0.038 7.189,1.77 4.892,3.425 4.505,3.063 4.126,2.699 3.738,2.353 2.358,1.122 1.002,0.234 0,0"
         style="fill:#183254;fill-opacity:1;fill-rule:nonzero;stroke:none"
         id="path3962" />
    </g>
    <g
       id="g3964"
       transform="matrix(0.35277777,0,0,-0.35277777,132.61525,107.09607)">
      <path
         d="M 0,0 C 0.518,0.252 1.065,0.508 1.629,0.759 1.459,0.763 1.288,0.765 1.115,0.765 -0.4,0.765 -2.352,0.531 -3.203,0.329 l 0.185,-0.702 C -2.138,-0.184 -1.112,-0.053 0,0"
         style="fill:#183254;fill-opacity:1;fill-rule:nonzero;stroke:none"
         id="path3966" />
    </g>
    <g
       id="g3968"
       transform="matrix(0.35277777,0,0,-0.35277777,133.74301,106.59286)">
      <path
         d="M 0,0 C 0.469,0.189 0.943,0.369 1.414,0.537 0.381,0.706 -0.811,0.803 -2.082,0.803 -3.665,0.803 -5.529,0.6 -6.311,0.399 -6.376,0.218 -6.465,-0.348 -6.465,-0.348 -5.255,-0.074 -3.734,0.09 -2.082,0.09 -1.357,0.09 -0.659,0.058 0,0"
         style="fill:#183254;fill-opacity:1;fill-rule:nonzero;stroke:none"
         id="path3970" />
    </g>
    <g
       id="g3972"
       transform="matrix(0.35277777,0,0,-0.35277777,132.78391,106.10843)">
      <path
         d="m 0,0 -0.161,3.016 c -0.009,0.09 -0.09,0.192 -0.2,0.192 -0.11,0 -0.191,-0.099 -0.199,-0.192 L -0.721,0 Z"
         style="fill:#183254;fill-opacity:1;fill-rule:nonzero;stroke:none"
         id="path3974" />
    </g>
    <g
       id="g3976"
       transform="matrix(0.35277777,0,0,-0.35277777,136.01052,106.48156)">
      <path
         d="m 0,0 c 0.017,0.255 -0.057,0.406 -0.352,0.433 -4.398,0.415 -13.35,-5.294 -13.35,-5.294 l -0.15,-1.241 -3.562,-1.789 V -8.81 c 0,0 0.956,-0.365 3.662,-0.161 1.891,0.144 6.401,1.02 12.082,0.184 C -1.327,-6.494 -0.039,-0.584 0,0"
         style="fill:#183254;fill-opacity:1;fill-rule:nonzero;stroke:none"
         id="path3978" />
    </g>
  </g>
</svg>
